<svg width="19" height="16" viewBox="0 0 19 16" fill="none" xmlns="http://www.w3.org/2000/svg">
<path fill-rule="evenodd" clip-rule="evenodd" d="M7.77778 0.666504H2.27778C1.26944 0.666504 0.444443 1.4915 0.444443 2.49984V13.4998C0.444443 14.5082 1.26944 15.3332 2.27778 15.3332H16.9444C17.9528 15.3332 18.7778 14.5082 18.7778 13.4998V4.33317C18.7778 3.32484 17.9528 2.49984 16.9444 2.49984H9.61111L7.77778 0.666504Z" fill="#336BFD"/>
<path fill-rule="evenodd" clip-rule="evenodd" d="M7.77778 0.666504H2.27778C1.26944 0.666504 0.444443 1.4915 0.444443 2.49984V13.4998C0.444443 14.5082 1.26944 15.3332 2.27778 15.3332H16.9444C17.9528 15.3332 18.7778 14.5082 18.7778 13.4998V4.33317C18.7778 3.32484 17.9528 2.49984 16.9444 2.49984H9.61111L7.77778 0.666504Z" fill="#2649FF"/>
</svg>
