<svg width="22" height="22" viewBox="0 0 22 22" fill="none" xmlns="http://www.w3.org/2000/svg">
<path fill-rule="evenodd" clip-rule="evenodd" d="M11.6112 2.44434C12.757 2.44434 13.7951 2.88624 14.5384 3.6887C15.2908 4.50109 15.6575 5.59459 15.5708 6.76716C15.3985 9.10121 13.6252 10.9998 11.6112 10.9998C9.59731 10.9998 7.82093 9.10082 7.65135 6.76639C7.5658 5.58314 7.93017 4.48734 8.67799 3.68106C9.4178 2.88357 10.4593 2.44434 11.6112 2.44434ZM4.37895 19.4471C4.53884 19.5207 4.71311 19.5576 4.88908 19.5553H18.3332C18.5092 19.5576 18.6834 19.5206 18.8433 19.447C19.0032 19.3734 19.1447 19.265 19.2574 19.1299C19.5057 18.8331 19.6058 18.4279 19.5317 18.018C19.2093 16.2298 18.2033 14.7276 16.6221 13.6734C15.2173 12.7377 13.4379 12.2221 11.6111 12.2221C9.78433 12.2221 8.0049 12.7373 6.60014 13.6734C5.01894 14.728 4.01292 16.2302 3.69057 18.0184C3.61647 18.4282 3.71654 18.8335 3.9648 19.1302C4.07758 19.2653 4.21907 19.3736 4.37895 19.4471Z" fill="#336BFD"/>
<path fill-rule="evenodd" clip-rule="evenodd" d="M11.6112 2.44434C12.757 2.44434 13.7951 2.88624 14.5384 3.6887C15.2908 4.50109 15.6575 5.59459 15.5708 6.76716C15.3985 9.10121 13.6252 10.9998 11.6112 10.9998C9.59731 10.9998 7.82093 9.10082 7.65135 6.76639C7.5658 5.58314 7.93017 4.48734 8.67799 3.68106C9.4178 2.88357 10.4593 2.44434 11.6112 2.44434ZM4.37895 19.4471C4.53884 19.5207 4.71311 19.5576 4.88908 19.5553H18.3332C18.5092 19.5576 18.6834 19.5206 18.8433 19.447C19.0032 19.3734 19.1447 19.265 19.2574 19.1299C19.5057 18.8331 19.6058 18.4279 19.5317 18.018C19.2093 16.2298 18.2033 14.7276 16.6221 13.6734C15.2173 12.7377 13.4379 12.2221 11.6111 12.2221C9.78433 12.2221 8.0049 12.7373 6.60014 13.6734C5.01894 14.728 4.01292 16.2302 3.69057 18.0184C3.61647 18.4282 3.71654 18.8335 3.9648 19.1302C4.07758 19.2653 4.21907 19.3736 4.37895 19.4471Z" fill="#2649FF"/>
</svg>
