<svg width="24" height="24" viewBox="0 0 24 24" fill="none" xmlns="http://www.w3.org/2000/svg">
<path d="M10.5 21C10.5 21 9 21 9 19.5C9 18 10.5 13.5 16.5 13.5C22.5 13.5 24 18 24 19.5C24 21 22.5 21 22.5 21H10.5ZM16.5 12C17.6935 12 18.8381 11.5259 19.682 10.682C20.5259 9.83807 21 8.69347 21 7.5C21 6.30653 20.5259 5.16193 19.682 4.31802C18.8381 3.47411 17.6935 3 16.5 3C15.3065 3 14.1619 3.47411 13.318 4.31802C12.4741 5.16193 12 6.30653 12 7.5C12 8.69347 12.4741 9.83807 13.318 10.682C14.1619 11.5259 15.3065 12 16.5 12Z" fill="white"/>
<path d="M10.5 21C10.5 21 9 21 9 19.5C9 18 10.5 13.5 16.5 13.5C22.5 13.5 24 18 24 19.5C24 21 22.5 21 22.5 21H10.5ZM16.5 12C17.6935 12 18.8381 11.5259 19.682 10.682C20.5259 9.83807 21 8.69347 21 7.5C21 6.30653 20.5259 5.16193 19.682 4.31802C18.8381 3.47411 17.6935 3 16.5 3C15.3065 3 14.1619 3.47411 13.318 4.31802C12.4741 5.16193 12 6.30653 12 7.5C12 8.69347 12.4741 9.83807 13.318 10.682C14.1619 11.5259 15.3065 12 16.5 12Z" fill="#336BFD"/>
<path d="M10.5 21C10.5 21 9 21 9 19.5C9 18 10.5 13.5 16.5 13.5C22.5 13.5 24 18 24 19.5C24 21 22.5 21 22.5 21H10.5ZM16.5 12C17.6935 12 18.8381 11.5259 19.682 10.682C20.5259 9.83807 21 8.69347 21 7.5C21 6.30653 20.5259 5.16193 19.682 4.31802C18.8381 3.47411 17.6935 3 16.5 3C15.3065 3 14.1619 3.47411 13.318 4.31802C12.4741 5.16193 12 6.30653 12 7.5C12 8.69347 12.4741 9.83807 13.318 10.682C14.1619 11.5259 15.3065 12 16.5 12Z" fill="#FB771D"/>
<path fill-rule="evenodd" clip-rule="evenodd" d="M7.824 21.0002C7.60163 20.5319 7.49073 20.0185 7.5 19.5002C7.5 17.4677 8.52 15.3752 10.404 13.9202C9.46364 13.6304 8.48392 13.4887 7.5 13.5002C1.5 13.5002 0 18.0002 0 19.5002C0 21.0002 1.5 21.0002 1.5 21.0002H7.824Z" fill="white"/>
<path fill-rule="evenodd" clip-rule="evenodd" d="M7.824 21.0002C7.60163 20.5319 7.49073 20.0185 7.5 19.5002C7.5 17.4677 8.52 15.3752 10.404 13.9202C9.46364 13.6304 8.48392 13.4887 7.5 13.5002C1.5 13.5002 0 18.0002 0 19.5002C0 21.0002 1.5 21.0002 1.5 21.0002H7.824Z" fill="#336BFD"/>
<path fill-rule="evenodd" clip-rule="evenodd" d="M7.824 21.0002C7.60163 20.5319 7.49073 20.0185 7.5 19.5002C7.5 17.4677 8.52 15.3752 10.404 13.9202C9.46364 13.6304 8.48392 13.4887 7.5 13.5002C1.5 13.5002 0 18.0002 0 19.5002C0 21.0002 1.5 21.0002 1.5 21.0002H7.824Z" fill="#FB771D"/>
<path d="M6.75 12C7.74456 12 8.69839 11.6049 9.40165 10.9017C10.1049 10.1984 10.5 9.24456 10.5 8.25C10.5 7.25544 10.1049 6.30161 9.40165 5.59835C8.69839 4.89509 7.74456 4.5 6.75 4.5C5.75544 4.5 4.80161 4.89509 4.09835 5.59835C3.39509 6.30161 3 7.25544 3 8.25C3 9.24456 3.39509 10.1984 4.09835 10.9017C4.80161 11.6049 5.75544 12 6.75 12Z" fill="white"/>
<path d="M6.75 12C7.74456 12 8.69839 11.6049 9.40165 10.9017C10.1049 10.1984 10.5 9.24456 10.5 8.25C10.5 7.25544 10.1049 6.30161 9.40165 5.59835C8.69839 4.89509 7.74456 4.5 6.75 4.5C5.75544 4.5 4.80161 4.89509 4.09835 5.59835C3.39509 6.30161 3 7.25544 3 8.25C3 9.24456 3.39509 10.1984 4.09835 10.9017C4.80161 11.6049 5.75544 12 6.75 12Z" fill="#336BFD"/>
<path d="M6.75 12C7.74456 12 8.69839 11.6049 9.40165 10.9017C10.1049 10.1984 10.5 9.24456 10.5 8.25C10.5 7.25544 10.1049 6.30161 9.40165 5.59835C8.69839 4.89509 7.74456 4.5 6.75 4.5C5.75544 4.5 4.80161 4.89509 4.09835 5.59835C3.39509 6.30161 3 7.25544 3 8.25C3 9.24456 3.39509 10.1984 4.09835 10.9017C4.80161 11.6049 5.75544 12 6.75 12Z" fill="#FB771D"/>
</svg>
