<svg width="24" height="24" viewBox="0 0 24 24" fill="none" xmlns="http://www.w3.org/2000/svg">
<path fill-rule="evenodd" clip-rule="evenodd" d="M9.08331 2.04938C9.08331 1.65401 9.40976 1.3335 9.81248 1.3335H12H14.1875C14.5902 1.3335 14.9166 1.65401 14.9166 2.04938C14.9166 2.44475 14.5902 2.76526 14.1875 2.76526H12.7291V4.36773C14.3309 4.48924 15.8194 5.00773 17.0925 5.82312C17.1211 5.78416 17.1532 5.74695 17.1887 5.71193L18.6471 4.28016C19.0031 3.93069 19.5801 3.93069 19.9361 4.28016C20.2921 4.62963 20.2921 5.1962 19.9361 5.54567L18.5144 6.94147C20.2534 8.6058 21.3333 10.9308 21.3333 13.5035C21.3333 18.5642 17.1546 22.6668 12 22.6668C6.84531 22.6668 2.66666 18.5642 2.66666 13.5035C2.66666 8.68363 6.45695 4.73294 11.2708 4.36773V2.76526H9.81248C9.40976 2.76526 9.08331 2.44475 9.08331 2.04938ZM4.12499 13.5035C4.12499 9.23347 7.65074 5.77195 12 5.77195C16.3492 5.77195 19.875 9.23347 19.875 13.5035C19.875 17.7735 16.3492 21.2351 12 21.2351C7.65074 21.2351 4.12499 17.7735 4.12499 13.5035ZM12 13.5035V7.20371C8.45614 7.20371 5.58332 10.0242 5.58332 13.5035C5.58332 16.9827 8.45614 19.8033 12 19.8033C13.7719 19.8033 15.376 19.0982 16.5372 17.958L12 13.5035Z" fill="white"/>
<path fill-rule="evenodd" clip-rule="evenodd" d="M9.08331 2.04938C9.08331 1.65401 9.40976 1.3335 9.81248 1.3335H12H14.1875C14.5902 1.3335 14.9166 1.65401 14.9166 2.04938C14.9166 2.44475 14.5902 2.76526 14.1875 2.76526H12.7291V4.36773C14.3309 4.48924 15.8194 5.00773 17.0925 5.82312C17.1211 5.78416 17.1532 5.74695 17.1887 5.71193L18.6471 4.28016C19.0031 3.93069 19.5801 3.93069 19.9361 4.28016C20.2921 4.62963 20.2921 5.1962 19.9361 5.54567L18.5144 6.94147C20.2534 8.6058 21.3333 10.9308 21.3333 13.5035C21.3333 18.5642 17.1546 22.6668 12 22.6668C6.84531 22.6668 2.66666 18.5642 2.66666 13.5035C2.66666 8.68363 6.45695 4.73294 11.2708 4.36773V2.76526H9.81248C9.40976 2.76526 9.08331 2.44475 9.08331 2.04938ZM4.12499 13.5035C4.12499 9.23347 7.65074 5.77195 12 5.77195C16.3492 5.77195 19.875 9.23347 19.875 13.5035C19.875 17.7735 16.3492 21.2351 12 21.2351C7.65074 21.2351 4.12499 17.7735 4.12499 13.5035ZM12 13.5035V7.20371C8.45614 7.20371 5.58332 10.0242 5.58332 13.5035C5.58332 16.9827 8.45614 19.8033 12 19.8033C13.7719 19.8033 15.376 19.0982 16.5372 17.958L12 13.5035Z" fill="#336BFD"/>
<path fill-rule="evenodd" clip-rule="evenodd" d="M9.08331 2.04938C9.08331 1.65401 9.40976 1.3335 9.81248 1.3335H12H14.1875C14.5902 1.3335 14.9166 1.65401 14.9166 2.04938C14.9166 2.44475 14.5902 2.76526 14.1875 2.76526H12.7291V4.36773C14.3309 4.48924 15.8194 5.00773 17.0925 5.82312C17.1211 5.78416 17.1532 5.74695 17.1887 5.71193L18.6471 4.28016C19.0031 3.93069 19.5801 3.93069 19.9361 4.28016C20.2921 4.62963 20.2921 5.1962 19.9361 5.54567L18.5144 6.94147C20.2534 8.6058 21.3333 10.9308 21.3333 13.5035C21.3333 18.5642 17.1546 22.6668 12 22.6668C6.84531 22.6668 2.66666 18.5642 2.66666 13.5035C2.66666 8.68363 6.45695 4.73294 11.2708 4.36773V2.76526H9.81248C9.40976 2.76526 9.08331 2.44475 9.08331 2.04938ZM4.12499 13.5035C4.12499 9.23347 7.65074 5.77195 12 5.77195C16.3492 5.77195 19.875 9.23347 19.875 13.5035C19.875 17.7735 16.3492 21.2351 12 21.2351C7.65074 21.2351 4.12499 17.7735 4.12499 13.5035ZM12 13.5035V7.20371C8.45614 7.20371 5.58332 10.0242 5.58332 13.5035C5.58332 16.9827 8.45614 19.8033 12 19.8033C13.7719 19.8033 15.376 19.0982 16.5372 17.958L12 13.5035Z" fill="#FD9521"/>
<path fill-rule="evenodd" clip-rule="evenodd" d="M9.08331 2.04938C9.08331 1.65401 9.40976 1.3335 9.81248 1.3335H12H14.1875C14.5902 1.3335 14.9166 1.65401 14.9166 2.04938C14.9166 2.44475 14.5902 2.76526 14.1875 2.76526H12.7291V4.36773C14.3309 4.48924 15.8194 5.00773 17.0925 5.82312C17.1211 5.78416 17.1532 5.74695 17.1887 5.71193L18.6471 4.28016C19.0031 3.93069 19.5801 3.93069 19.9361 4.28016C20.2921 4.62963 20.2921 5.1962 19.9361 5.54567L18.5144 6.94147C20.2534 8.6058 21.3333 10.9308 21.3333 13.5035C21.3333 18.5642 17.1546 22.6668 12 22.6668C6.84531 22.6668 2.66666 18.5642 2.66666 13.5035C2.66666 8.68363 6.45695 4.73294 11.2708 4.36773V2.76526H9.81248C9.40976 2.76526 9.08331 2.44475 9.08331 2.04938ZM4.12499 13.5035C4.12499 9.23347 7.65074 5.77195 12 5.77195C16.3492 5.77195 19.875 9.23347 19.875 13.5035C19.875 17.7735 16.3492 21.2351 12 21.2351C7.65074 21.2351 4.12499 17.7735 4.12499 13.5035ZM12 13.5035V7.20371C8.45614 7.20371 5.58332 10.0242 5.58332 13.5035C5.58332 16.9827 8.45614 19.8033 12 19.8033C13.7719 19.8033 15.376 19.0982 16.5372 17.958L12 13.5035Z" fill="#FB771D"/>
</svg>
